# xmcd
#
# Track frame offsets: 
#        150
#        19360
#        41582
#        61835
#        79147
#        94702
#        119207
#        134370
#        149512
#        173930
#
# Disc length: 3027 seconds
#
# Revision: 3
# Processed by: cddbd v1.5.2PL0 Copyright (c) Steve Scherf et al.
# Submitted via: ExactAudioCopy v1.0b1
#
DISCID=910bd10a
DTITLE=Graeme Connors - South Of These Days
DYEAR=1987
DGENRE=Country
TTITLE0=A Child Of This Land
TTITLE1=Living Off The Land
TTITLE2=On The Edge Of Town
TTITLE3=Just Like Home
TTITLE4=Head On Collision Of Hearts
TTITLE5=We Can Change The World
TTITLE6=Seasonally Adjusted
TTITLE7=Lost Cities Of The Heart
TTITLE8=Roy Rocket
TTITLE9=South Of These Days
EXTD=
EXTT0=
EXTT1=
EXTT2=
EXTT3=
EXTT4=
EXTT5=
EXTT6=
EXTT7=
EXTT8=
EXTT9=
PLAYORDER=
